<?xml version="1.0" encoding="utf-8"?>
<!-- Generator: Adobe Illustrator 23.0.5, SVG Export Plug-In . SVG Version: 6.00 Build 0)  -->
<svg version="1.1" id="Layer_1" xmlns="http://www.w3.org/2000/svg" xmlns:xlink="http://www.w3.org/1999/xlink" x="0px" y="0px"
	 viewBox="0 0 32 32" style="enable-background:new 0 0 32 32;" xml:space="preserve">
<style type="text/css">
	.st0{fill:#6B2C7A;}
	.st1{fill:#FD9800;}
	.st2{enable-background:new    ;}
	.st3{fill:#6B2B7A;}
</style>
<g transform="translate(-100 -23)">
	<g>
		<path class="st0" d="M100.7,35.7c0-2,0-3.9,0-5.9c0-0.2,0-0.4,0-0.6c0-0.2,0.1-0.5,0.2-0.7c0.1-0.3,0.3-0.5,0.6-0.6
			c0.3-0.1,0.5-0.1,0.8-0.1c0.2,0.1,0.4,0.1,0.6,0.3c0.2,0.2,0.3,0.4,0.4,0.6c0.1,0.3,0.1,0.6,0.1,0.9c0,0.3,0,0.5,0,0.8
			c0,1.2,0,2.4,0,3.6c0,0.1,0,0.1,0.1,0.1c0,0,0.1,0,0.1,0c1.9,0,3.7,0,5.6,0c0.1,0,0.1,0,0.1-0.1c0-1.4,0-2.7,0-4.1
			c0-0.3,0-0.6,0.1-0.8c0.1-0.4,0.2-0.7,0.5-1c0.1-0.1,0.3-0.2,0.5-0.2c0.2,0,0.3-0.1,0.5,0c0.4,0.1,0.7,0.2,0.9,0.6
			c0.1,0.1,0.2,0.3,0.2,0.4c0,0,0,0,0,0.1c0,0,0,0.1,0.1,0.1c0,0,0,0,0.1-0.1c0.1-0.1,0.2-0.2,0.3-0.3c0.1-0.1,0.3-0.3,0.5-0.4
			c0.1-0.1,0.2-0.1,0.3-0.2c0.1-0.1,0.2-0.1,0.4-0.2c0.1,0,0.1-0.1,0.2-0.1c0.1,0,0.1,0,0.1-0.1c0.1,0,0.2,0,0.2-0.1c0,0,0,0,0,0
			c0.1,0,0.2-0.1,0.3-0.1c0,0,0.1,0,0.1,0c0,0,0.1,0,0.1,0c0.1,0,0.1,0,0.2,0c0,0,0,0,0.1,0c0.4,0,0.8,0,1.2,0c0,0,0.1,0,0.1,0
			c0,0,0,0,0.1,0c0.2,0,0.4,0.1,0.6,0.1c0.1,0,0.2,0,0.3,0.1c0,0,0.1,0,0.2,0.1c0.2,0.1,0.3,0.1,0.5,0.2c0.3,0.2,0.6,0.4,0.9,0.7
			c0.1,0.1,0.1,0.1,0.2,0.2c0,0,0.1,0.1,0.1,0c0.1-0.3,0.3-0.5,0.6-0.6c0.3-0.1,0.6-0.2,0.8-0.2c0.2,0,0.4,0,0.6,0
			c1.5,0,3.1,0,4.6,0c0.5,0,0.9,0,1.4,0.1c0.2,0,0.5,0.1,0.7,0.1c0.2,0.1,0.4,0.1,0.7,0.2c0.3,0.1,0.5,0.2,0.7,0.4
			c0.2,0.1,0.3,0.2,0.4,0.4c0.2,0.2,0.3,0.3,0.5,0.5c0.1,0.2,0.2,0.4,0.3,0.5c0.1,0.2,0.2,0.3,0.2,0.5c0.1,0.2,0.1,0.4,0.1,0.6
			c0,0.3,0,0.5,0,0.8c0,0.2,0,0.4-0.1,0.6c0,0.2-0.1,0.3-0.1,0.5c-0.1,0.2-0.2,0.4-0.3,0.6c-0.1,0.2-0.3,0.4-0.5,0.6
			c-0.2,0.2-0.4,0.3-0.7,0.5c-0.2,0.1-0.3,0.2-0.5,0.3c0,0-0.1,0,0,0c0,0,0,0,0,0c0.1,0.1,0.3,0.1,0.4,0.2c0.1,0.1,0.3,0.1,0.4,0.2
			c0.2,0.1,0.4,0.2,0.6,0.4c0.2,0.1,0.4,0.3,0.5,0.5c0.2,0.2,0.3,0.4,0.4,0.6c0.1,0.2,0.2,0.4,0.3,0.6c0.1,0.2,0.1,0.3,0.1,0.5
			c0,0.2,0.1,0.3,0.1,0.5c0,0.4,0,0.7,0,1.1c0,0.1-0.1,0.3-0.1,0.4c0,0.1-0.1,0.2-0.1,0.3c0,0.1,0,0.1-0.1,0.2
			c-0.1,0.2-0.2,0.4-0.3,0.6c-0.1,0.2-0.3,0.4-0.4,0.6c-0.2,0.3-0.5,0.5-0.7,0.7c-0.2,0.1-0.4,0.3-0.6,0.3c-0.2,0.1-0.4,0.2-0.7,0.2
			c-0.2,0.1-0.4,0.1-0.6,0.1c-0.2,0-0.4,0.1-0.6,0.1c-0.4,0-0.7,0-1.1,0.1c-0.2,0-0.4,0-0.6,0c-1.7,0-3.4,0-5,0
			c-0.2,0-0.5,0-0.7-0.1c-0.2-0.1-0.4-0.2-0.6-0.3c-0.1-0.1-0.2-0.2-0.2-0.3c0,0,0-0.1-0.1-0.1c0,0,0,0,0,0
			c-0.1,0.2-0.3,0.3-0.5,0.4c-0.2,0.2-0.4,0.3-0.6,0.4c-0.2,0.1-0.4,0.2-0.6,0.3c-0.1,0.1-0.3,0.1-0.4,0.2c-0.3,0.1-0.5,0.1-0.8,0.1
			c-0.2,0-0.5,0-0.8,0c-0.1,0-0.1,0-0.2,0c-0.1,0-0.3,0-0.4-0.1c-0.1,0-0.2,0-0.3-0.1c-0.1,0-0.2-0.1-0.3-0.1
			c-0.1,0-0.2-0.1-0.3-0.1c-0.1-0.1-0.2-0.1-0.3-0.2c-0.1-0.1-0.3-0.1-0.4-0.2c-0.2-0.2-0.5-0.4-0.7-0.6c-0.1-0.1-0.1-0.1-0.2-0.2
			c0,0,0,0-0.1,0c0,0,0,0,0,0.1c0,0.2-0.1,0.3-0.2,0.5c-0.1,0.1-0.2,0.3-0.3,0.4c-0.1,0.1-0.2,0.1-0.2,0.1c-0.2,0.1-0.4,0.1-0.6,0.1
			c-0.4,0-0.7-0.2-0.9-0.5c-0.1-0.1-0.2-0.2-0.2-0.4c0-0.1-0.1-0.2-0.1-0.3c0-0.1,0-0.3-0.1-0.4c0-0.1,0-0.3,0-0.4c0-1.7,0-3.3,0-5
			c0-0.1,0-0.1-0.1-0.1c-1.9,0-3.8,0-5.7,0c-0.1,0-0.1,0-0.1,0.1c0,1.6,0,3.3,0,4.9c0,0.2,0,0.5,0,0.7c0,0.2-0.1,0.4-0.2,0.6
			c-0.1,0.2-0.3,0.4-0.5,0.5c-0.3,0.2-0.6,0.2-1,0.2c-0.2-0.1-0.4-0.2-0.6-0.3c-0.1-0.1-0.2-0.3-0.3-0.4c-0.2-0.4-0.2-0.8-0.2-1.2
			C100.7,39.6,100.7,37.7,100.7,35.7z M115.5,43.7c0.3,0,0.6,0,0.9-0.1c0,0,0,0,0.1,0c0,0,0.1,0,0.1,0c0.1,0,0.2-0.1,0.3-0.1
			c0,0,0,0,0,0c0.1-0.1,0.2-0.1,0.2-0.1c0.1,0,0.2-0.1,0.3-0.1c0.2-0.1,0.4-0.2,0.5-0.3c0.2-0.1,0.3-0.2,0.5-0.4
			c0.3-0.2,0.5-0.5,0.7-0.8c0.1-0.1,0.2-0.3,0.3-0.5c0.1-0.2,0.1-0.4,0.2-0.5c0-0.1,0-0.2,0.1-0.2c0,0,0-0.1,0-0.1
			c0-0.2,0.1-0.5,0.1-0.7c0-0.2,0-0.4,0-0.6c0-0.3-0.1-0.5-0.2-0.8c0,0,0-0.1,0-0.1c0,0,0-0.1,0-0.1c-0.1-0.1-0.1-0.2-0.2-0.4
			c-0.1-0.1-0.1-0.2-0.2-0.3c-0.2-0.3-0.3-0.5-0.5-0.7c-0.3-0.3-0.7-0.6-1-0.8c0,0,0,0-0.1,0c-0.1,0-0.1,0-0.2,0.1
			c-0.2,0.2-0.4,0.4-0.7,0.6c-0.1,0.1-0.2,0.2-0.3,0.3c-0.3,0.3-0.6,0.6-0.9,0.9c0,0,0,0,0,0.1c0,0,0,0,0.1,0c0.1,0,0.2,0,0.3,0
			c0.1,0,0.1,0,0.2,0c0.1,0.1,0.2,0.1,0.3,0.2c0.1,0.1,0.2,0.2,0.3,0.3c0.1,0.1,0.2,0.3,0.3,0.5c0,0,0,0.1,0,0.1c0,0.2,0,0.3,0,0.5
			c0,0.1,0,0.2,0,0.3c-0.1,0.2-0.2,0.4-0.4,0.5c-0.2,0.2-0.4,0.3-0.6,0.4c-0.2,0.1-0.4,0.1-0.6,0.1c-0.2,0-0.5-0.1-0.7-0.2
			c-0.2-0.1-0.3-0.2-0.5-0.4c-0.1-0.1-0.1-0.2-0.2-0.3c-0.1-0.1-0.1-0.3-0.1-0.5c0-0.2,0-0.4,0.1-0.6c0-0.1,0-0.1,0.1-0.2
			c0-0.1,0.1-0.2,0.2-0.3c0.3-0.3,0.7-0.7,1-1c0.2-0.2,0.5-0.5,0.7-0.7c0.2-0.2,0.4-0.3,0.5-0.5c0.3-0.3,0.7-0.6,1-0.9
			c0.3-0.3,0.6-0.6,0.9-0.9c0.2-0.2,0.3-0.4,0.5-0.5c0.1-0.1,0.2-0.2,0.3-0.4c0.1-0.1,0.1-0.3,0.2-0.4c0,0,0,0,0-0.1
			c0-0.1,0-0.1,0.1-0.2c0,0,0-0.1,0-0.1c0-0.1,0-0.2,0.1-0.3c0,0,0-0.1,0-0.1c0-0.1,0-0.2,0-0.2c0-0.2,0.1-0.3,0.1-0.5
			c0-0.2,0-0.3,0-0.5c0-0.1-0.1-0.2-0.1-0.3c0-0.2-0.1-0.4-0.2-0.7c0-0.1-0.1-0.2-0.1-0.4c-0.1-0.1-0.1-0.3-0.2-0.4
			c-0.1-0.2-0.2-0.4-0.4-0.5c-0.2-0.3-0.5-0.5-0.7-0.7c-0.2-0.2-0.4-0.3-0.6-0.4c0,0-0.1-0.1-0.1-0.1c-0.1,0-0.1-0.1-0.2-0.1
			c-0.1-0.1-0.2-0.1-0.4-0.1c-0.1,0-0.2-0.1-0.3-0.1c-0.2,0-0.3-0.1-0.5-0.1c-0.2,0-0.5,0-0.7,0c-0.1,0-0.2,0-0.2,0
			c-0.1,0-0.3,0.1-0.4,0.1c-0.2,0-0.3,0.1-0.5,0.1c-0.1,0-0.1,0-0.2,0.1c-0.1,0-0.1,0.1-0.2,0.1c-0.1,0.1-0.2,0.1-0.3,0.1
			c-0.2,0.1-0.3,0.2-0.5,0.3c-0.2,0.2-0.4,0.4-0.6,0.6c-0.1,0.1-0.2,0.3-0.3,0.4c-0.1,0.1-0.2,0.3-0.3,0.4c-0.1,0.1-0.1,0.2-0.1,0.3
			c-0.1,0.1-0.1,0.3-0.2,0.4c0,0,0,0.1,0,0.1c0,0.1-0.1,0.2-0.1,0.3c0,0.3-0.1,0.5-0.1,0.8c0,0,0,0,0,0.1c0,0.3,0,0.6,0.1,0.8
			c0,0.2,0.1,0.4,0.2,0.5c0,0,0,0.1,0,0.1c0,0.1,0,0.1,0.1,0.1c0,0,0,0.1,0,0.1c0,0.1,0.1,0.2,0.2,0.3c0,0.1,0.1,0.2,0.2,0.2
			c0.1,0.1,0.1,0.2,0.2,0.3c0.3,0.4,0.7,0.7,1.2,0.9c0.1,0,0.1,0,0.2,0c0.1-0.1,0.2-0.2,0.3-0.3c0.2-0.2,0.4-0.4,0.6-0.6
			c0.3-0.3,0.7-0.6,1-1c0,0,0.1-0.1,0.1-0.1c0,0-0.1,0-0.1,0c-0.2,0-0.3,0-0.5-0.1c-0.1,0-0.2-0.1-0.3-0.1c-0.1-0.1-0.2-0.1-0.2-0.2
			c-0.3-0.3-0.5-0.6-0.5-1c0-0.2,0-0.4,0.1-0.6c0.1-0.1,0.1-0.2,0.2-0.3c0.1-0.1,0.3-0.3,0.4-0.4c0.1-0.1,0.3-0.1,0.4-0.2
			c0.1,0,0.3-0.1,0.4,0c0.2,0,0.4,0,0.5,0.1c0.2,0.1,0.4,0.2,0.6,0.4c0.1,0.1,0.2,0.2,0.2,0.3c0.1,0.1,0.1,0.3,0.2,0.4
			c0,0.3,0,0.5-0.1,0.8c-0.1,0.2-0.2,0.3-0.3,0.4c-0.1,0.1-0.2,0.2-0.3,0.3c-0.2,0.2-0.5,0.4-0.7,0.6c-0.1,0.1-0.2,0.1-0.2,0.2
			c-0.1,0.2-0.3,0.3-0.4,0.4c-0.1,0.1-0.3,0.2-0.4,0.4c-0.2,0.2-0.3,0.3-0.5,0.5c-0.2,0.2-0.3,0.3-0.5,0.5c0,0-0.1,0-0.1,0.1
			c-0.1,0.1-0.2,0.2-0.3,0.3c-0.1,0.1-0.2,0.1-0.2,0.2c-0.1,0.1-0.3,0.3-0.4,0.4c-0.2,0.1-0.3,0.3-0.4,0.4c-0.1,0.1-0.2,0.3-0.3,0.4
			c-0.1,0.2-0.2,0.3-0.3,0.5c0,0,0,0,0,0c-0.1,0.1-0.1,0.3-0.2,0.4c0,0,0,0,0,0c0,0,0,0.1,0,0.1c-0.1,0.1-0.1,0.3-0.1,0.5
			c0,0.2,0,0.5,0,0.7c0,0.3,0,0.6,0.1,0.9c0.1,0.2,0.1,0.4,0.2,0.6c0.1,0.1,0.1,0.3,0.2,0.4c0.1,0.2,0.2,0.3,0.3,0.5
			c0.2,0.2,0.3,0.4,0.6,0.6c0.2,0.1,0.3,0.2,0.4,0.4c0.2,0.1,0.4,0.3,0.6,0.3c0.1,0,0.1,0.1,0.2,0.1c0.1,0,0.2,0,0.2,0.1
			c0.1,0,0.2,0.1,0.3,0.1c0.1,0,0.2,0.1,0.4,0.1C114.9,43.7,115.2,43.7,115.5,43.7z M121.7,38.8C121.7,38.8,121.7,38.8,121.7,38.8
			c0,0.7,0,1.4,0,2.1c0,0.1,0,0.1,0.1,0.1c1,0,2,0,3,0c0.3,0,0.7,0,1,0c0.2,0,0.4-0.1,0.6-0.1c0.1,0,0.3-0.1,0.4-0.1
			c0.2-0.1,0.3-0.1,0.4-0.2c0.2-0.1,0.4-0.3,0.6-0.5c0.1-0.2,0.2-0.4,0.3-0.6c0.1-0.3,0.1-0.6,0.1-0.9c0-0.3-0.1-0.7-0.3-0.9
			c-0.3-0.4-0.7-0.6-1.1-0.8c-0.2-0.1-0.4-0.1-0.6-0.1c-0.3-0.1-0.6-0.1-1-0.1c-1.1,0-2.3,0-3.4,0c-0.1,0-0.1,0-0.1,0.1
			C121.7,37.4,121.7,38.1,121.7,38.8z M121.7,32.4c0,0.6,0,1.3,0,1.9c0,0.1,0,0.1,0.1,0.1c0.9,0,1.7,0,2.6,0c0.6,0,1.2,0,1.8-0.2
			c0.2-0.1,0.4-0.1,0.6-0.3c0.2-0.1,0.4-0.3,0.5-0.5c0.1-0.2,0.2-0.4,0.3-0.6c0-0.2,0-0.5,0-0.7c0-0.2-0.1-0.5-0.2-0.7
			c-0.2-0.3-0.5-0.5-0.8-0.6c-0.3-0.1-0.5-0.2-0.8-0.2c-0.4-0.1-0.8-0.1-1.2-0.1c-0.9,0-1.8,0-2.7,0c-0.1,0-0.1,0-0.1,0.1
			C121.7,31.1,121.7,31.7,121.7,32.4z"/>
		<path class="st1" d="M115.5,43.7c-0.3,0-0.5,0-0.8,0c-0.1,0-0.3-0.1-0.4-0.1c-0.1,0-0.2,0-0.3-0.1c-0.1,0-0.1-0.1-0.2-0.1
			c-0.1,0-0.1,0-0.2-0.1c-0.2-0.1-0.4-0.2-0.6-0.3c-0.2-0.1-0.3-0.2-0.4-0.4c-0.2-0.2-0.4-0.4-0.6-0.6c-0.1-0.1-0.2-0.3-0.3-0.5
			c-0.1-0.1-0.1-0.3-0.2-0.4c-0.1-0.2-0.1-0.4-0.2-0.6c-0.1-0.3-0.1-0.6-0.1-0.9c0-0.2,0-0.5,0-0.7c0-0.2,0.1-0.3,0.1-0.5
			c0,0,0-0.1,0-0.1c0,0,0,0,0,0c0.1-0.1,0.1-0.3,0.2-0.4c0,0,0,0,0,0c0.1-0.2,0.2-0.3,0.3-0.5c0.1-0.1,0.2-0.3,0.3-0.4
			c0.1-0.2,0.3-0.3,0.4-0.4c0.1-0.1,0.3-0.2,0.4-0.4c0.1-0.1,0.1-0.1,0.2-0.2c0.1-0.1,0.2-0.2,0.3-0.3c0,0,0.1-0.1,0.1-0.1
			c0.2-0.2,0.4-0.3,0.5-0.5c0.2-0.2,0.3-0.3,0.5-0.5c0.1-0.1,0.3-0.2,0.4-0.4c0.1-0.2,0.3-0.3,0.4-0.4c0.1-0.1,0.2-0.1,0.2-0.2
			c0.2-0.2,0.5-0.4,0.7-0.6c0.1-0.1,0.2-0.2,0.3-0.3c0.1-0.1,0.2-0.3,0.3-0.4c0.1-0.3,0.1-0.5,0.1-0.8c0-0.1-0.1-0.3-0.2-0.4
			c-0.1-0.1-0.1-0.2-0.2-0.3c-0.2-0.2-0.4-0.3-0.6-0.4c-0.2-0.1-0.4-0.1-0.5-0.1c-0.1,0-0.3,0-0.4,0c-0.1,0-0.3,0.1-0.4,0.2
			c-0.2,0.1-0.3,0.2-0.4,0.4c-0.1,0.1-0.1,0.2-0.2,0.3c-0.1,0.2-0.1,0.4-0.1,0.6c0,0.4,0.2,0.8,0.5,1c0.1,0.1,0.2,0.1,0.2,0.2
			c0.1,0.1,0.2,0.1,0.3,0.1c0.1,0,0.3,0.1,0.5,0.1c0,0,0.1,0,0.1,0c0,0,0,0.1-0.1,0.1c-0.3,0.3-0.7,0.6-1,1
			c-0.2,0.2-0.4,0.4-0.6,0.6c-0.1,0.1-0.2,0.2-0.3,0.3c-0.1,0.1-0.1,0-0.2,0c-0.4-0.3-0.8-0.6-1.2-0.9c-0.1-0.1-0.2-0.2-0.2-0.3
			c-0.1-0.1-0.1-0.2-0.2-0.2c-0.1-0.1-0.1-0.2-0.2-0.3c0,0,0-0.1,0-0.1c0,0-0.1-0.1-0.1-0.1c0,0,0-0.1,0-0.1
			c-0.1-0.2-0.1-0.3-0.2-0.5c-0.1-0.3-0.1-0.5-0.1-0.8c0,0,0,0,0-0.1c0-0.3,0-0.5,0.1-0.8c0-0.1,0-0.2,0.1-0.3c0,0,0-0.1,0-0.1
			c0.1-0.1,0.1-0.3,0.2-0.4c0.1-0.1,0.1-0.2,0.1-0.3c0.1-0.1,0.2-0.3,0.3-0.4c0.1-0.2,0.2-0.3,0.3-0.4c0.2-0.2,0.4-0.4,0.6-0.6
			c0.2-0.1,0.3-0.2,0.5-0.3c0.1-0.1,0.2-0.1,0.3-0.1c0.1,0,0.1,0,0.2-0.1c0,0,0.1,0,0.2-0.1c0.2,0,0.3-0.1,0.5-0.1
			c0.1,0,0.3,0,0.4-0.1c0.1,0,0.2,0,0.2,0c0.2,0,0.5,0,0.7,0c0.2,0,0.3,0,0.5,0.1c0.1,0,0.2,0.1,0.3,0.1c0.1,0,0.2,0.1,0.4,0.1
			c0.1,0,0.1,0.1,0.2,0.1c0.1,0,0.1,0,0.1,0.1c0.2,0.1,0.4,0.2,0.6,0.4c0.3,0.2,0.5,0.4,0.7,0.7c0.1,0.2,0.3,0.4,0.4,0.5
			c0.1,0.1,0.1,0.3,0.2,0.4c0.1,0.1,0.1,0.2,0.1,0.4c0.1,0.2,0.2,0.4,0.2,0.7c0,0.1,0,0.2,0.1,0.3c0,0.2,0,0.3,0,0.5
			c0,0.2,0,0.3-0.1,0.5c0,0.1,0,0.2,0,0.2c0,0,0,0.1,0,0.1c0,0.1-0.1,0.2-0.1,0.3c0,0,0,0.1,0,0.1c0,0.1-0.1,0.1-0.1,0.2
			c0,0,0,0,0,0.1c-0.1,0.1-0.1,0.3-0.2,0.4c-0.1,0.1-0.2,0.3-0.3,0.4c-0.2,0.2-0.3,0.4-0.5,0.5c-0.3,0.3-0.6,0.6-0.9,0.9
			c-0.3,0.3-0.7,0.6-1,0.9c-0.2,0.2-0.4,0.3-0.5,0.5c-0.2,0.2-0.5,0.5-0.7,0.7c-0.3,0.3-0.7,0.6-1,1c-0.1,0.1-0.1,0.2-0.2,0.3
			c0,0.1,0,0.1-0.1,0.2c-0.1,0.2-0.1,0.4-0.1,0.6c0,0.2,0.1,0.3,0.1,0.5c0,0.1,0.1,0.2,0.2,0.3c0.1,0.2,0.3,0.3,0.5,0.4
			c0.2,0.1,0.4,0.2,0.7,0.2c0.2,0,0.4,0,0.6-0.1c0.2-0.1,0.4-0.2,0.6-0.4c0.1-0.2,0.3-0.3,0.4-0.5c0-0.1,0-0.2,0-0.3
			c0-0.2,0-0.3,0-0.5c0,0,0-0.1,0-0.1c-0.1-0.2-0.2-0.3-0.3-0.5c-0.1-0.1-0.2-0.2-0.3-0.3c-0.1-0.1-0.2-0.1-0.3-0.2
			c-0.1,0-0.1,0-0.2,0c-0.1,0-0.2,0-0.3,0c0,0-0.1,0-0.1,0c0,0,0-0.1,0-0.1c0.3-0.3,0.6-0.6,0.9-0.9c0.1-0.1,0.2-0.2,0.3-0.3
			c0.2-0.2,0.4-0.4,0.7-0.6c0,0,0.1-0.1,0.2-0.1c0,0,0,0,0.1,0c0.4,0.2,0.7,0.5,1,0.8c0.2,0.2,0.4,0.5,0.5,0.7
			c0.1,0.1,0.1,0.2,0.2,0.3c0.1,0.1,0.1,0.2,0.2,0.4c0,0,0,0.1,0,0.1c0,0,0,0.1,0,0.1c0.1,0.3,0.1,0.5,0.2,0.8c0,0.2,0,0.4,0,0.6
			c0,0.2-0.1,0.5-0.1,0.7c0,0,0,0.1,0,0.1c0,0.1,0,0.2-0.1,0.2c-0.1,0.2-0.1,0.4-0.2,0.5c-0.1,0.2-0.2,0.3-0.3,0.5
			c-0.2,0.3-0.4,0.6-0.7,0.8c-0.1,0.1-0.3,0.3-0.5,0.4c-0.2,0.1-0.3,0.2-0.5,0.3c-0.1,0.1-0.2,0.1-0.3,0.1c-0.1,0-0.2,0-0.2,0.1
			c0,0,0,0,0,0c-0.1,0-0.2,0.1-0.3,0.1c0,0-0.1,0-0.1,0c0,0,0,0-0.1,0C116.1,43.7,115.8,43.8,115.5,43.7z"/>
	</g>
	<g class="st2">
		<path class="st3" d="M103.8,46.2v4.4h-1.1v-1.8h-1.7v1.8H100v-4.4h1.1v1.7h1.7v-1.7H103.8z"/>
		<path class="st3" d="M105.2,50.4c-0.3-0.1-0.5-0.4-0.6-0.6c-0.2-0.3-0.2-0.6-0.2-0.9c0-0.4,0.1-0.7,0.2-0.9
			c0.2-0.3,0.4-0.5,0.6-0.6c0.3-0.1,0.6-0.2,0.9-0.2s0.6,0.1,0.9,0.2c0.3,0.1,0.5,0.4,0.6,0.6c0.2,0.3,0.2,0.6,0.2,0.9
			c0,0.4-0.1,0.7-0.2,0.9c-0.2,0.3-0.4,0.5-0.7,0.6c-0.3,0.1-0.6,0.2-0.9,0.2C105.8,50.6,105.5,50.5,105.2,50.4z M106.7,49.5
			c0.1-0.1,0.2-0.4,0.2-0.6c0-0.3-0.1-0.5-0.2-0.6c-0.1-0.1-0.3-0.2-0.5-0.2c-0.2,0-0.4,0.1-0.5,0.2c-0.1,0.1-0.2,0.4-0.2,0.6
			c0,0.3,0.1,0.5,0.2,0.6c0.1,0.1,0.3,0.2,0.5,0.2C106.3,49.7,106.5,49.6,106.7,49.5z"/>
		<path class="st3" d="M109.2,50.4c-0.3-0.1-0.5-0.4-0.6-0.6c-0.2-0.3-0.2-0.6-0.2-0.9c0-0.4,0.1-0.7,0.2-0.9
			c0.2-0.3,0.4-0.5,0.6-0.6c0.3-0.1,0.6-0.2,0.9-0.2s0.6,0.1,0.9,0.2c0.3,0.1,0.5,0.4,0.6,0.6c0.2,0.3,0.2,0.6,0.2,0.9
			c0,0.4-0.1,0.7-0.2,0.9c-0.2,0.3-0.4,0.5-0.7,0.6c-0.3,0.1-0.6,0.2-0.9,0.2S109.5,50.5,109.2,50.4z M110.6,49.5
			c0.1-0.1,0.2-0.4,0.2-0.6c0-0.3-0.1-0.5-0.2-0.6c-0.1-0.1-0.3-0.2-0.5-0.2c-0.2,0-0.4,0.1-0.5,0.2c-0.1,0.1-0.2,0.4-0.2,0.6
			c0,0.3,0.1,0.5,0.2,0.6c0.1,0.1,0.3,0.2,0.5,0.2S110.5,49.6,110.6,49.5z"/>
		<path class="st3" d="M114,47.2c0.2-0.1,0.4-0.2,0.6-0.2v1.1h-0.3c-0.3,0-0.5,0.1-0.6,0.2c-0.1,0.1-0.2,0.3-0.2,0.6v1.6h-1.1v-3.5
			h1.1v0.6C113.7,47.5,113.9,47.3,114,47.2z"/>
		<path class="st3" d="M119.8,48.7c0.2,0.2,0.2,0.4,0.2,0.7c0,0.4-0.1,0.7-0.4,0.9c-0.3,0.2-0.6,0.3-1.1,0.3h-2v-4.4h2
			c0.4,0,0.8,0.1,1,0.3c0.3,0.2,0.4,0.5,0.4,0.8c0,0.3-0.1,0.5-0.2,0.6c-0.1,0.2-0.3,0.3-0.5,0.4C119.4,48.4,119.6,48.5,119.8,48.7z
			 M117.6,48h0.7c0.2,0,0.3,0,0.4-0.1c0.1-0.1,0.1-0.2,0.1-0.3c0-0.1,0-0.3-0.1-0.3c-0.1-0.1-0.2-0.1-0.4-0.1h-0.7V48z M118.8,49.6
			c0.1-0.1,0.1-0.2,0.1-0.4c0-0.2-0.1-0.3-0.2-0.4c-0.1-0.1-0.2-0.1-0.4-0.1h-0.8v1h0.8C118.5,49.7,118.7,49.7,118.8,49.6z"/>
		<path class="st3" d="M121.3,50.4c-0.3-0.1-0.5-0.4-0.6-0.6c-0.2-0.3-0.2-0.6-0.2-0.9c0-0.4,0.1-0.7,0.2-0.9
			c0.2-0.3,0.4-0.5,0.6-0.6c0.3-0.1,0.6-0.2,0.9-0.2c0.3,0,0.6,0.1,0.9,0.2c0.3,0.1,0.5,0.4,0.6,0.6c0.2,0.3,0.2,0.6,0.2,0.9
			c0,0.4-0.1,0.7-0.2,0.9s-0.4,0.5-0.7,0.6c-0.3,0.1-0.6,0.2-0.9,0.2C121.8,50.6,121.5,50.5,121.3,50.4z M122.7,49.5
			c0.1-0.1,0.2-0.4,0.2-0.6c0-0.3-0.1-0.5-0.2-0.6c-0.1-0.1-0.3-0.2-0.5-0.2c-0.2,0-0.4,0.1-0.5,0.2c-0.1,0.1-0.2,0.4-0.2,0.6
			c0,0.3,0.1,0.5,0.2,0.6c0.1,0.1,0.3,0.2,0.5,0.2C122.4,49.7,122.6,49.6,122.7,49.5z"/>
		<path class="st3" d="M125.2,50.4c-0.3-0.1-0.5-0.4-0.6-0.6c-0.2-0.3-0.2-0.6-0.2-0.9c0-0.4,0.1-0.7,0.2-0.9
			c0.2-0.3,0.4-0.5,0.6-0.6c0.3-0.1,0.6-0.2,0.9-0.2c0.3,0,0.6,0.1,0.9,0.2c0.3,0.1,0.5,0.4,0.6,0.6c0.2,0.3,0.2,0.6,0.2,0.9
			c0,0.4-0.1,0.7-0.2,0.9c-0.2,0.3-0.4,0.5-0.7,0.6c-0.3,0.1-0.6,0.2-0.9,0.2S125.5,50.5,125.2,50.4z M126.7,49.5
			c0.1-0.1,0.2-0.4,0.2-0.6c0-0.3-0.1-0.5-0.2-0.6c-0.1-0.1-0.3-0.2-0.5-0.2c-0.2,0-0.4,0.1-0.5,0.2c-0.1,0.1-0.2,0.4-0.2,0.6
			c0,0.3,0.1,0.5,0.2,0.6c0.1,0.1,0.3,0.2,0.5,0.2S126.5,49.6,126.7,49.5z"/>
		<path class="st3" d="M130.7,50.6l-1.1-1.5v1.5h-1.1v-4.6h1.1v2.6l1.1-1.4h1.3l-1.4,1.7l1.5,1.7H130.7z"/>
	</g>
</g>
</svg>
